
<svg xmlns="http://www.w3.org/2000/svg" width="24" height="24" viewBox="0 0 24 24" fill="none" stroke="currentColor" stroke-width="2" stroke-linecap="round" stroke-linejoin="round" class="lucide lucide-brain"><path d="M9.5 2a2.5 2.5 0 1 1 0 5a2.5 2.5 0 0 1 0-5Z"></path><path d="M14.5 2a2.5 2.5 0 1 0 0 5a2.5 2.5 0 0 0 0-5Z"></path><path d="M21 7a2 2 0 1 0 0 4a2 2 0 0 0 0-4Z"></path><path d="M3 7a2 2 0 1 1 0 4a2 2 0 0 1 0-4Z"></path><path d="M9 18c.6.5 1.2 1 2 1.5c1 .7 2.1 1.1 3.5 1.1c2.2 0 5-1.1 6.5-5.3a8 8 0 0 0 .1-6.8"></path><path d="M18 10a3 3 0 0 0-3-3"></path><path d="M6.7 10a3 3 0 0 1 3-3"></path><path d="M12 22v-7"></path><path d="M10 13a2 2 0 1 0 4 0a2 2 0 0 0-4 0Z"></path><path d="M13.8 7.8a2 2 0 1 0 0-4a2 2 0 0 0 0 4Z"></path><path d="M3 21c0-2.1 1.7-3.9 3.8-4"></path><path d="M20 21a6 6 0 0 0-3.8-4"></path></svg>
