
<svg xmlns="http://www.w3.org/2000/svg" width="24" height="24" viewBox="0 0 24 24" fill="none" stroke="currentColor" stroke-width="2" stroke-linecap="round" stroke-linejoin="round" class="lucide lucide-puzzle"><path d="M19.439 7.85c-.049.322.059.648.289.878l1.568 1.568c.47.47.706 1.087.706 1.704s-.235 1.233-.706 1.704l-1.611 1.611a.98.98 0 0 1-.837.276c-.47-.07-.802-.48-.968-.925-.73-1.956-2.893-1.458-2.893.498 0 1.043.044 1.997.253 2.815.117.463.017.97-.324 1.311l-1.512 1.509c-.472.47-1.089.706-1.706.706s-1.233-.235-1.704-.706l-1.568-1.568a.98.98 0 0 1-.276-.837c.07-.47.48-.802.925-.968 1.956-.73 1.458-2.893-.498-2.893-1.043 0-1.997.044-2.815.253-.463.117-.97.017-1.311-.324L2.047 13.9a2.41 2.41 0 0 1 0-3.41l1.568-1.568a.98.98 0 0 1 .878-.29c1.427.22 2.86-.852 2.86-2.293 0-1.95-2.893-1.931-2.893.013 0 .425-.293.854-.863.93-.315.042-.616-.104-.837-.324L1.047 5.27a2.41 2.41 0 0 1 0-3.41L2.756.149c.471-.47 1.087-.706 1.704-.706s1.233.236 1.704.706l1.568 1.568c.22.22.366.521.324.837-.076.57.505.863.93.863 1.944 0 1.963-2.893.013-2.893-1.441 0-2.514 1.432-2.293 2.86C6.753 4.08 7.5 4.5 8.142 4.5c.901 0 1.485-.959 1.182-1.797-.23-.637.026-1.434.568-1.977L11.6.019c.471-.47 1.087-.705 1.705-.705s1.233.235 1.704.705l1.568 1.568c.47.47.706 1.087.706 1.704s-.235 1.233-.706 1.704l-1.568 1.568c-.22.22-.521.366-.857.324-.628-.082-1.201.395-1.201 1.022 0 .901.959 1.485 1.797 1.182.637-.23 1.434.026 1.977.568l1.568 1.567c.086.086.16.18.224.28"></path></svg>
